<?xml version="1.0" encoding="UTF-8" standalone="no"?>
<!-- Created with Inkscape (http://www.inkscape.org/) -->

<svg
   version="1.1"
   id="svg2"
   width="558.85071"
   height="383.68976"
   viewBox="0 0 558.85071 383.68976"
   xmlns="http://www.w3.org/2000/svg"
   xmlns:svg="http://www.w3.org/2000/svg">
  <defs
     id="defs6">
    <clipPath
       clipPathUnits="userSpaceOnUse"
       id="clipPath18">
      <path
         d="m 243.195,392.369 c -6.048,-3.51 -15.189,-8.816 -15.838,-9.143 v 0 l 0.632,-1.358 1.299,0.75 -1.299,-0.751 -0.386,-1.449 c 0.045,-0.011 0.086,-0.023 0.127,-0.032 v 0 C 210.333,368.16 210.434,367.985 211.298,366.489 v 0 c 0.199,-0.346 0.534,-0.601 0.92,-0.703 v 0 c 0.748,-0.199 0.89,-0.236 15.45,8.28 v 0 c -4.437,-3.019 -8.592,-5.849 -11.877,-8.103 v 0 c -2.172,-1.491 -3.966,-2.73 -5.211,-3.607 v 0 c -2.292,-1.614 -3.065,-2.158 -2.348,-3.4 v 0 c 0.201,-0.347 0.538,-0.604 0.925,-0.706 v 0 c 0.237,-0.062 0.42,-0.11 1.033,0.132 v 0 C 190.844,346.11 191.176,345.54 192.025,344.071 v 0 c 0.201,-0.348 0.566,-0.623 0.955,-0.725 v 0 c 0.591,-0.153 1.37,-0.023 6.141,2.616 v 0 C 180.5,334.159 180.871,333.517 181.722,332.043 v 0 c 0.199,-0.346 0.543,-0.607 0.93,-0.709 v 0 c 0.619,-0.163 0.979,-0.26 11.357,5.672 v 0 c -25.923,-15.919 -25.588,-16.503 -24.664,-18.104 v 0 c 0.201,-0.347 0.557,-0.616 0.946,-0.717 v 0 c 0.21,-0.055 0.392,-0.102 0.817,0.017 v 0 c -1.343,-0.823 -2.657,-1.632 -3.939,-2.423 v 0 c -29.555,-18.234 -29.15,-18.936 -28.171,-20.631 v 0 c 0.201,-0.349 0.552,-0.613 0.941,-0.715 v 0 c 1.155,-0.299 1.393,-0.362 50.082,28.807 v 0 c 20.359,12.196 46.966,28.187 65.845,39.025 v 0 C 237.109,350.698 209.716,334.35 187.32,320.982 v 0 c -15.923,-9.502 -30.962,-18.479 -41.912,-25.121 v 0 c -5.857,-3.554 -10.12,-6.183 -13.034,-8.037 v 0 c -5.088,-3.237 -6.004,-3.82 -5.153,-5.294 v 0 c 0.2,-0.346 0.535,-0.602 0.921,-0.704 v 0 c 0.556,-0.148 0.839,-0.227 11.636,5.971 v 0 c -1.996,-1.189 -3.921,-2.34 -5.768,-3.447 v 0 c -25.308,-15.175 -25.05,-15.624 -24.085,-17.295 v 0 c 0.223,-0.386 0.592,-0.662 1.038,-0.777 v 0 c 0.038,-0.01 0.077,-0.021 0.118,-0.03 v 0 C 96.303,257.279 90.184,252.933 89.734,251.265 v 0 c -0.124,-0.464 -0.066,-0.936 0.163,-1.333 v 0 c 0.2,-0.347 0.554,-0.615 0.94,-0.717 v 0 c 0.689,-0.181 2.279,0.342 13.765,6.817 v 0 c -2.735,-1.606 -5.33,-3.133 -7.766,-4.572 v 0 C 89.121,246.9 83.512,243.528 79.691,241.152 v 0 c -6.654,-4.138 -7.47,-4.726 -6.596,-6.24 v 0 c 0.2,-0.347 0.539,-0.605 0.926,-0.708 v 0 c 0.74,-0.194 1.097,-0.289 25.635,13.996 v 0 c -3.724,-2.173 -7.264,-4.248 -10.591,-6.209 v 0 C 59.263,224.428 58.967,223.325 58.681,222.259 v 0 c -0.114,-0.424 -0.059,-0.864 0.156,-1.236 v 0 c 0.201,-0.348 0.577,-0.63 0.967,-0.732 v 0 c 0.766,-0.198 2.463,0.412 9.938,4.658 v 0 c -0.305,-0.188 -0.609,-0.377 -0.91,-0.563 v 0 C 41.279,207.344 41.456,207.037 42.438,205.337 v 0 c 0.199,-0.347 0.55,-0.612 0.936,-0.714 v 0 c 0.741,-0.195 1.244,-0.33 20.372,10.645 v 0 C 46.334,204.896 46.139,204.171 45.919,203.353 v 0 c -0.104,-0.385 -0.046,-0.855 0.153,-1.199 v 0 c 0.225,-0.391 0.598,-0.671 1.051,-0.789 v 0 c 1.184,-0.309 3.077,-0.804 47.562,24.767 v 0 c -0.084,-0.417 -0.019,-0.836 0.187,-1.194 v 0 c 0.2,-0.348 0.56,-0.618 0.947,-0.72 v 0 c 0.94,-0.247 1.503,-0.395 29.54,15.981 v 0 c 16.698,9.754 38.89,22.912 62.385,36.841 v 0 c 37.239,22.078 81.114,48.088 103.907,60.916 v 0 c -21.124,-13.34 -62.117,-37.193 -94.443,-56.002 v 0 c -20.156,-11.728 -39.192,-22.805 -53.12,-31.106 v 0 c -24.106,-14.368 -23.877,-14.765 -22.91,-16.439 v 0 c 0.201,-0.348 0.559,-0.619 0.946,-0.72 v 0 c 0.916,-0.241 1.523,-0.398 30.646,16.533 v 0 c -9.59,-6.366 -9.119,-7.181 -8.447,-8.345 v 0 c 0.201,-0.348 0.582,-0.634 0.97,-0.735 v 0 c 1.692,-0.44 10.178,4.167 66.141,37.499 v 0 c -8.225,-5.013 -15.985,-9.756 -22.867,-13.985 v 0 c -29.285,-18.002 -29.266,-18.034 -28.278,-19.745 v 0 c 0.201,-0.349 0.546,-0.61 0.935,-0.71 v 0 c 1.089,-0.283 1.258,-0.326 50.15,28.961 v 0 c 2.316,1.387 4.695,2.812 7.129,4.269 v 0 c -5.073,-3.071 -9.952,-6.038 -14.532,-8.84 v 0 C 168.974,247.182 169.28,246.652 170.294,244.897 v 0 c 0.201,-0.349 0.591,-0.64 0.98,-0.74 v 0 c 1.927,-0.498 12.363,5.49 69.796,40.039 v 0 c 0.328,0.198 0.657,0.396 0.986,0.594 v 0 c -9.924,-6.089 -19.352,-11.887 -27.4,-16.868 v 0 c -7.757,-4.803 -13.457,-8.367 -17.428,-10.898 v 0 c -2.17,-1.383 -3.826,-2.461 -4.921,-3.202 v 0 c -1.795,-1.215 -2.879,-1.947 -2.122,-3.258 v 0 c 0.201,-0.347 0.567,-0.623 0.955,-0.725 v 0 c 1.149,-0.302 5.252,1.607 35.934,19.553 v 0 c -28.111,-17.09 -27.766,-17.687 -26.825,-19.319 v 0 c 0.201,-0.347 0.546,-0.609 0.934,-0.711 v 0 c 1.096,-0.286 1.294,-0.336 49.99,28.625 v 0 c 17.042,10.134 37.387,22.234 53.4,31.558 v 0 c -14.306,-8.861 -32.171,-19.669 -47.229,-28.779 v 0 c -11.602,-7.019 -22.559,-13.648 -30.433,-18.495 v 0 c -4.207,-2.59 -7.265,-4.506 -9.349,-5.856 v 0 c -3.632,-2.353 -4.609,-2.986 -3.793,-4.398 v 0 c 0.201,-0.347 0.538,-0.604 0.926,-0.706 v 0 c 0.98,-0.255 0.999,-0.261 37.364,21.346 v 0 c 15.825,9.402 35.986,21.379 51.841,30.597 v 0 c -14.076,-8.852 -31.426,-19.509 -44.293,-27.412 v 0 c -7.625,-4.684 -14.356,-8.817 -19.165,-11.805 v 0 c -2.413,-1.5 -4.343,-2.71 -5.664,-3.56 v 0 c -2.291,-1.473 -3.239,-2.083 -2.482,-3.394 v 0 c 0.201,-0.347 0.55,-0.612 0.938,-0.713 v 0 c 1.037,-0.271 1.326,-0.344 38.886,21.975 v 0 c -9.593,-5.967 -18.487,-11.507 -25.37,-15.828 v 0 c -4.351,-2.734 -7.531,-4.749 -9.718,-6.162 v 0 c -4.264,-2.754 -4.812,-3.108 -4.038,-4.448 v 0 c 0.201,-0.347 0.547,-0.61 0.935,-0.712 v 0 c 1.013,-0.263 1.236,-0.319 37.266,21.146 v 0 c -1.692,-1.061 -3.332,-2.092 -4.905,-3.085 v 0 c -6.356,-4.012 -11.03,-7.023 -14.289,-9.206 v 0 c -5.501,-3.686 -6.635,-4.518 -5.766,-6.022 v 0 c 0.199,-0.348 0.539,-0.605 0.926,-0.707 v 0 c 0.993,-0.259 1.032,-0.27 36.9,21.001 v 0 c 5.313,3.151 11.032,6.542 16.789,9.948 v 0 c -9.87,-6.202 -19.607,-12.333 -27.303,-17.276 v 0 c -5.063,-3.25 -8.77,-5.681 -11.335,-7.432 v 0 c -4.172,-2.851 -5.432,-3.71 -4.575,-5.192 v 0 c 0.2,-0.349 0.564,-0.623 0.953,-0.724 v 0 c 1.126,-0.292 3.015,0.48 32.828,18.223 v 0 c -31.576,-19.746 -31.37,-20.111 -30.357,-21.865 v 0 c 0.201,-0.348 0.566,-0.623 0.956,-0.724 v 0 c 1.193,-0.308 2.993,0.464 36.246,20.407 v 0 C 274.332,254.516 274.49,254.242 275.387,252.688 v 0 c 0.201,-0.348 0.548,-0.611 0.936,-0.712 v 0 c 1.055,-0.276 1.275,-0.334 39.991,22.658 v 0 c 2.562,1.521 5.21,3.093 7.878,4.676 v 0 c -2.401,-1.564 -4.754,-3.096 -7,-4.559 v 0 c -6.837,-4.453 -13.169,-8.577 -17.782,-11.61 v 0 c -2.312,-1.52 -4.193,-2.767 -5.489,-3.644 v 0 c -2.372,-1.605 -3.171,-2.145 -2.437,-3.415 v 0 c 0.201,-0.348 0.559,-0.619 0.948,-0.72 v 0 c 0.949,-0.247 1.373,-0.359 24.065,13.058 v 0 c -21.399,-13.934 -21.203,-14.278 -20.312,-15.822 v 0 c 0.2,-0.347 0.547,-0.609 0.935,-0.711 v 0 c 0.969,-0.253 1.157,-0.306 28.915,16.171 v 0 c -23.207,-15.537 -23.201,-15.55 -22.272,-17.16 v 0 c 0.2,-0.346 0.543,-0.607 0.931,-0.709 v 0 c 0.834,-0.219 1.14,-0.3 22.328,12.137 v 0 c -0.136,-0.091 -0.27,-0.181 -0.405,-0.272 v 0 c -4.293,-2.883 -8.153,-5.474 -10.933,-7.358 v 0 c -1.397,-0.945 -2.522,-1.713 -3.293,-2.251 v 0 c -1.4,-0.973 -2.325,-1.617 -1.616,-2.845 v 0 c 0.201,-0.348 0.55,-0.612 0.938,-0.714 v 0 c 0.797,-0.208 1.201,-0.31 19.623,10.493 v 0 c -9.822,-6.809 -9.662,-7.085 -8.924,-8.363 v 0 c 0.201,-0.347 0.544,-0.607 0.932,-0.709 v 0 c 0.824,-0.216 1.048,-0.276 17.613,9.493 v 0 c -1.897,-1.298 -3.737,-2.555 -5.449,-3.726 v 0 c -4.539,-3.102 -8.679,-5.931 -11.672,-8.006 v 0 c -1.505,-1.045 -2.722,-1.9 -3.557,-2.505 v 0 c -1.383,-1.002 -2.383,-1.727 -1.67,-2.961 v 0 c 0.201,-0.346 0.545,-0.607 0.932,-0.709 v 0 c 0.912,-0.239 1.115,-0.294 24.821,13.741 v 0 C 325.353,242.721 325.65,242.206 326.461,240.8 v 0 c 0.2,-0.346 0.546,-0.609 0.933,-0.711 v 0 c 0.822,-0.216 1.192,-0.316 22.677,12.253 v 0 c -3.63,-2.325 -6.937,-4.452 -9.586,-6.181 v 0 c -2.193,-1.432 -3.787,-2.496 -4.874,-3.251 v 0 c -1.811,-1.26 -2.904,-2.019 -2.146,-3.333 v 0 c 0.201,-0.347 0.545,-0.608 0.934,-0.709 v 0 c 0.951,-0.248 1.068,-0.278 24.539,13.71 v 0 c -5.044,-3.437 -9.82,-6.695 -13.497,-9.222 v 0 c -2.154,-1.478 -3.932,-2.708 -5.165,-3.574 v 0 c -2.343,-1.647 -3.051,-2.144 -2.337,-3.381 v 0 c 0.2,-0.346 0.531,-0.599 0.917,-0.702 v 0 c 0.772,-0.203 0.772,-0.204 23.057,12.858 v 0 c 0.875,0.513 1.77,1.037 2.681,1.571 v 0 c -4.588,-3.081 -8.844,-5.944 -12.128,-8.187 v 0 c -2.07,-1.415 -3.58,-2.465 -4.617,-3.211 v 0 c -1.807,-1.299 -2.802,-2.016 -2.068,-3.286 v 0 c 0.201,-0.348 0.542,-0.607 0.929,-0.709 v 0 c 0.822,-0.217 1.122,-0.291 22.916,12.496 v 0 c -3.798,-2.652 -7.296,-5.096 -9.946,-6.963 v 0 c -1.53,-1.077 -2.778,-1.962 -3.639,-2.585 v 0 c -1.572,-1.135 -2.436,-1.76 -1.737,-2.971 v 0 c 0.201,-0.347 0.538,-0.603 0.924,-0.706 v 0 c 0.732,-0.192 0.966,-0.247 15.727,8.37 v 0 c -1.744,-1.187 -3.4,-2.318 -4.918,-3.362 v 0 c -2.822,-1.941 -4.893,-3.39 -6.332,-4.431 v 0 c -2.546,-1.84 -3.499,-2.53 -2.746,-3.835 v 0 c 0.201,-0.347 0.544,-0.608 0.932,-0.709 v 0 c 0.864,-0.226 1.043,-0.276 18.911,10.318 v 0 c -14.26,-9.94 -14.133,-10.164 -13.303,-11.601 v 0 c 0.201,-0.347 0.537,-0.602 0.923,-0.704 v 0 c 0.901,-0.238 0.916,-0.24 24.451,13.621 v 0 c -5.154,-3.496 -10.018,-6.796 -13.618,-9.297 v 0 c -6.54,-4.542 -7.075,-4.913 -6.254,-6.334 v 0 c 0.2,-0.347 0.54,-0.606 0.928,-0.707 v 0 c 0.861,-0.226 0.986,-0.254 18.689,10.218 v 0 c -13.241,-9.108 -13.178,-9.217 -12.391,-10.581 v 0 c 0.2,-0.346 0.531,-0.598 0.917,-0.7 v 0 c 0.718,-0.19 0.717,-0.193 16.824,9.249 v 0 c 0.751,0.441 1.524,0.894 2.311,1.355 v 0 c -2.223,-1.581 -4.315,-3.079 -6.053,-4.352 v 0 c -5.369,-3.929 -6.236,-4.622 -5.418,-6.038 v 0 c 0.199,-0.346 0.531,-0.599 0.918,-0.701 v 0 c 0.661,-0.174 0.657,-0.173 10.767,5.794 v 0 c 1.96,1.158 4.248,2.508 6.675,3.939 v 0 c -13.5,-9.713 -13.346,-9.985 -12.558,-11.349 v 0 c 0.2,-0.346 0.534,-0.602 0.92,-0.703 v 0 c 0.781,-0.206 0.89,-0.24 17.13,9.272 v 0 c -0.924,-0.672 -1.811,-1.316 -2.638,-1.918 v 0 c -2.867,-2.084 -5.445,-3.959 -7.3,-5.325 v 0 c -3.766,-2.773 -4.074,-2.999 -3.365,-4.227 v 0 c 0.2,-0.347 0.53,-0.599 0.918,-0.701 v 0 c 0.704,-0.188 0.706,-0.187 13.225,7.145 v 0 c 1.013,0.593 2.066,1.209 3.124,1.829 v 0 c -0.005,-0.005 -0.008,-0.009 -0.013,-0.013 v 0 c -9.158,-8.038 -9.158,-8.038 -8.435,-9.29 v 0 c 0.199,-0.346 0.531,-0.599 0.917,-0.701 v 0 c 0.613,-0.163 0.742,-0.197 10.639,5.552 v 0 c -1.323,-1.031 -2.595,-2.027 -3.771,-2.954 v 0 c -2.028,-1.6 -3.524,-2.801 -4.575,-3.673 v 0 c -1.887,-1.568 -2.747,-2.283 -2.049,-3.49 v 0 c 0.199,-0.346 0.53,-0.598 0.916,-0.7 v 0 c 0.665,-0.176 0.664,-0.176 10.376,5.518 v 0 c 1.514,0.887 3.206,1.88 4.926,2.886 v 0 c -2.051,-1.787 -4.057,-3.54 -5.686,-4.977 v 0 c -1.121,-0.99 -2.064,-1.83 -2.722,-2.432 v 0 c -1.196,-1.096 -1.92,-1.757 -1.29,-2.85 v 0 c 0.2,-0.344 0.529,-0.598 0.915,-0.7 v 0 c 0.701,-0.186 0.746,-0.201 16.406,8.93 v 0 c -10.477,-8.696 -10.408,-8.818 -9.688,-10.064 v 0 c 0.199,-0.345 0.528,-0.597 0.914,-0.7 v 0 c 0.596,-0.159 0.671,-0.178 10.604,5.593 v 0 c -0.181,-0.155 -0.359,-0.307 -0.531,-0.453 v 0 c -6.792,-5.78 -6.792,-5.78 -6.127,-6.932 v 0 c 0.199,-0.346 0.53,-0.599 0.915,-0.701 v 0 c 0.562,-0.149 0.71,-0.196 8.425,4.279 v 0 c -0.814,-0.614 -1.596,-1.207 -2.325,-1.762 v 0 c -6.692,-5.093 -6.821,-5.189 -6.053,-6.518 v 0 c 0.2,-0.346 0.534,-0.601 0.921,-0.703 v 0 c 0.832,-0.221 0.848,-0.222 17.333,9.477 v 0 c -10.175,-8.667 -10.166,-8.679 -9.463,-9.898 v 0 c 0.199,-0.344 0.529,-0.596 0.913,-0.7 v 0 c 0.588,-0.157 0.66,-0.175 11.354,6.025 v 0 c -9.674,-8.279 -9.569,-8.458 -8.903,-9.611 v 0 c 0.198,-0.345 0.527,-0.596 0.911,-0.699 v 0 c 0.511,-0.137 0.603,-0.162 5.59,2.717 v 0 c 1.103,0.637 2.446,1.416 4.084,2.366 v 0 c 4.911,2.85 11.637,6.751 12.137,7.01 v 0 l -0.65,1.35 0.386,1.45 c -0.566,0.15 -0.633,0.165 -9.121,-4.745 v 0 c 1.452,1.241 2.837,2.418 3.987,3.397 v 0 c 1.675,1.428 3.157,2.689 4.216,3.598 v 0 c 2.187,1.88 2.643,2.27 2.004,3.377 v 0 c -0.199,0.346 -0.527,0.597 -0.913,0.7 v 0 c -0.624,0.166 -0.618,0.172 -9.851,-5.193 v 0 c -0.717,-0.415 -1.466,-0.85 -2.228,-1.292 v 0 c 10.069,8.582 10.024,8.658 9.326,9.868 v 0 c -0.201,0.347 -0.533,0.6 -0.919,0.702 v 0 c -0.677,0.179 -0.725,0.195 -10.816,-5.74 v 0 c 2.584,1.929 4.96,3.704 6.726,5.038 v 0 c 0.968,0.731 1.754,1.332 2.294,1.756 v 0 c 0.915,0.716 1.86,1.457 1.188,2.62 v 0 c -0.199,0.346 -0.529,0.598 -0.915,0.701 v 0 c -0.646,0.17 -0.647,0.168 -10.997,-5.869 v 0 c -1.649,-0.962 -3.494,-2.038 -5.366,-3.13 v 0 c 6.605,5.685 6.482,5.901 5.848,6.997 v 0 c -0.198,0.345 -0.528,0.597 -0.913,0.699 v 0 c -0.627,0.169 -0.628,0.167 -9.567,-5.026 v 0 c -0.056,-0.033 -0.11,-0.065 -0.165,-0.098 v 0 c 0.377,0.314 0.749,0.621 1.11,0.921 v 0 c 10.319,8.548 10.319,8.548 9.606,9.786 v 0 c -0.2,0.345 -0.529,0.597 -0.915,0.7 v 0 c -0.655,0.173 -0.657,0.175 -12.365,-6.655 v 0 c -1.961,-1.142 -4.11,-2.396 -6.232,-3.631 v 0 c 0.287,0.25 0.569,0.495 0.844,0.735 v 0 c 2.306,2.009 4.512,3.93 6.135,5.36 v 0 c 3.391,2.983 3.594,3.162 2.949,4.278 v 0 c -0.198,0.346 -0.531,0.6 -0.918,0.702 v 0 c -0.671,0.178 -0.785,0.217 -10.598,-5.519 v 0 c 1.035,0.802 2.023,1.565 2.928,2.264 v 0 c 2.445,1.89 4.646,3.591 6.231,4.829 v 0 c 3.248,2.536 3.587,2.802 2.908,3.978 v 0 c -0.199,0.345 -0.529,0.597 -0.914,0.699 v 0 c -0.635,0.168 -0.636,0.171 -9.505,-5.01 v 0 c -2.423,-1.413 -5.397,-3.15 -8.31,-4.846 v 0 c 8.89,7.811 8.838,7.897 8.116,9.149 v 0 c -0.2,0.346 -0.531,0.6 -0.917,0.702 v 0 c -0.451,0.119 -0.63,0.168 -3.916,-1.693 v 0 c 11.262,8.272 11.103,8.549 10.364,9.828 v 0 c -0.199,0.346 -0.53,0.598 -0.916,0.701 v 0 c -0.689,0.181 -0.687,0.181 -13.831,-7.528 v 0 c -1.089,-0.638 -2.245,-1.316 -3.437,-2.015 v 0 c 1.417,1.013 2.771,1.98 4,2.858 v 0 c 3.186,2.274 6.07,4.332 8.147,5.837 v 0 c 4.119,2.983 4.455,3.227 3.73,4.483 v 0 c -0.2,0.346 -0.542,0.605 -0.928,0.707 v 0 c -0.739,0.195 -1.03,0.271 -16.408,-8.729 v 0 c 1.449,1.035 2.8,2.01 3.984,2.874 v 0 c 5.09,3.725 6.151,4.501 5.315,5.947 v 0 c -0.199,0.346 -0.533,0.6 -0.919,0.703 v 0 c -0.679,0.179 -0.844,0.228 -11.746,-6.127 v 0 c 9.817,6.876 9.614,7.224 8.887,8.484 v 0 c -0.201,0.347 -0.54,0.605 -0.927,0.707 v 0 c -0.768,0.2 -0.923,0.241 -13.442,-7.144 v 0 c 16.16,11.036 15.996,11.319 15.153,12.78 v 0 c -0.2,0.346 -0.536,0.603 -0.923,0.705 v 0 c -0.92,0.241 -0.965,0.255 -26.567,-14.82 v 0 c 17.244,11.961 17.22,12.003 16.375,13.466 v 0 c -0.201,0.348 -0.542,0.607 -0.93,0.709 v 0 c -0.792,0.207 -0.968,0.253 -14.512,-7.764 v 0 c 3.865,2.613 7.443,5.036 10.27,6.972 v 0 c 1.917,1.314 3.491,2.404 4.576,3.179 v 0 c 1.864,1.33 2.799,1.998 2.075,3.254 v 0 c -0.2,0.346 -0.532,0.6 -0.918,0.702 v 0 c -0.754,0.199 -0.748,0.2 -19.607,-10.879 v 0 c -1.248,-0.733 -2.541,-1.494 -3.862,-2.268 v 0 c 2.725,1.907 5.327,3.735 7.612,5.352 v 0 c 2.51,1.774 4.637,3.294 6.128,4.386 v 0 c 2.71,1.987 3.439,2.521 2.711,3.779 v 0 c -0.199,0.346 -0.531,0.599 -0.918,0.701 v 0 c -0.709,0.186 -0.711,0.184 -15.99,-8.821 v 0 c -1.003,-0.591 -2.058,-1.214 -3.154,-1.86 v 0 c 17.684,11.913 17.562,12.121 16.74,13.545 v 0 c -0.2,0.347 -0.535,0.603 -0.922,0.704 v 0 c -0.803,0.214 -0.956,0.256 -22.274,-12.213 v 0 c 3.379,2.307 6.567,4.489 9.3,6.368 v 0 c 10.005,6.882 10.005,6.882 9.237,8.212 v 0 c -0.2,0.348 -0.552,0.614 -0.941,0.716 v 0 c -0.516,0.134 -0.837,0.218 -4.58,-1.844 v 0 c 9.553,6.42 9.245,6.953 8.556,8.147 v 0 c -0.2,0.347 -0.532,0.6 -0.919,0.701 v 0 c -0.776,0.206 -0.779,0.204 -21.973,-12.298 v 0 c -6.681,-3.94 -14.726,-8.686 -22.116,-13.01 v 0 c 6.605,4.472 13.548,9.106 18.728,12.564 v 0 c 4.146,2.767 7.786,5.197 10.38,6.95 v 0 c 1.306,0.882 2.349,1.595 3.06,2.094 v 0 c 1.189,0.834 2.215,1.555 1.504,2.789 v 0 c -0.201,0.347 -0.546,0.608 -0.934,0.71 v 0 c -0.993,0.261 -1.157,0.301 -31.167,-17.491 v 0 c 19.057,13.113 18.874,13.427 18.035,14.878 v 0 c -0.2,0.348 -0.535,0.603 -0.922,0.705 v 0 c -0.818,0.213 -0.848,0.219 -17.288,-9.516 v 0 c 13.27,9.124 13.16,9.313 12.344,10.726 v 0 c -0.2,0.348 -0.533,0.601 -0.921,0.701 v 0 c -0.698,0.183 -0.698,0.182 -13.689,-7.517 v 0 c -0.746,-0.442 -1.529,-0.907 -2.346,-1.391 v 0 c 1.456,0.988 2.865,1.947 4.202,2.86 v 0 c 3.604,2.464 6.265,4.311 8.134,5.65 v 0 c 3.456,2.475 4.277,3.062 3.504,4.402 v 0 c -0.2,0.346 -0.533,0.6 -0.92,0.702 v 0 c -0.777,0.203 -0.776,0.203 -20.108,-11.203 v 0 c -1.746,-1.03 -3.607,-2.127 -5.527,-3.259 v 0 c 22.121,14.849 21.989,15.08 21.072,16.668 v 0 c -0.2,0.348 -0.543,0.609 -0.931,0.71 v 0 c -0.869,0.227 -1.071,0.281 -20.169,-11.028 v 0 c 27.667,17.898 27.625,17.968 26.623,19.705 v 0 c -0.201,0.347 -0.544,0.607 -0.933,0.709 v 0 c -0.916,0.238 -1.067,0.279 -24.155,-13.461 v 0 c 3.706,2.426 7.251,4.754 10.412,6.845 v 0 c 4.492,2.971 7.8,5.188 10.113,6.782 v 0 c 4.271,2.943 5.042,3.473 4.25,4.843 v 0 c -0.2,0.348 -0.555,0.616 -0.943,0.717 v 0 c -0.99,0.259 -1.386,0.36 -29.99,-16.548 v 0 c 3.718,2.36 7.152,4.549 10.152,6.483 v 0 c 3.567,2.3 6.172,4.014 7.963,5.24 v 0 c 2.989,2.046 4.107,2.811 3.303,4.203 v 0 c -0.201,0.348 -0.583,0.633 -0.971,0.733 v 0 c -1.272,0.33 -4.941,-1.462 -30.536,-16.729 v 0 c 25.944,16.313 25.67,16.781 24.724,18.421 v 0 c -0.201,0.348 -0.559,0.618 -0.948,0.719 v 0 c -1.076,0.28 -1.447,0.373 -35.39,-19.867 v 0 c 10.318,6.478 20.047,12.587 27.338,17.25 v 0 c 3.966,2.537 6.859,4.422 8.845,5.761 v 0 c 3.408,2.299 4.437,2.992 3.632,4.386 v 0 c -0.201,0.347 -0.566,0.622 -0.954,0.724 v 0 c -1.081,0.283 -4.26,-1.14 -28.809,-15.51 v 0 c 5.219,3.225 9.964,6.166 13.806,8.571 v 0 c 3.418,2.139 5.904,3.716 7.601,4.823 v 0 c 3.13,2.04 3.97,2.588 3.193,3.935 v 0 c -0.201,0.347 -0.583,0.635 -0.971,0.735 v 0 c -1.112,0.289 -4.925,-1.474 -21.885,-11.328 v 0 c 16.64,10.483 16.593,10.563 15.73,12.057 v 0 c -0.201,0.349 -0.568,0.625 -0.957,0.726 v 0 c -0.804,0.21 -2.229,-0.211 -13.914,-6.926 v 0 c 10.228,6.752 9.89,7.337 9.189,8.551 v 0 c -0.2,0.348 -0.58,0.631 -0.968,0.734 v 0 c -0.667,0.173 -2.598,-0.548 -8.067,-3.485 v 0 c 12.111,7.824 11.748,8.448 10.999,9.746 v 0 c -0.201,0.347 -0.585,0.635 -0.973,0.737 v 0 c -1.033,0.269 -4.73,-1.385 -18.871,-9.481 v 0 c 15.082,9.517 14.664,10.244 13.88,11.602 v 0 c -0.2,0.347 -0.542,0.608 -0.929,0.709 v 0 c -1.09,0.286 -1.255,0.331 -53.926,-30.832 v 0 c -4.246,-2.512 -8.697,-5.146 -13.234,-7.827 v 0 c 2.832,1.735 5.637,3.453 8.383,5.136 v 0 c 15.009,9.191 29.185,17.873 39.713,24.376 v 0 c 5.644,3.485 9.765,6.052 12.602,7.846 v 0 c 1.512,0.957 2.689,1.714 3.482,2.241 v 0 c 1.275,0.848 2.377,1.581 1.639,2.858 v 0 c -0.219,0.38 -0.58,0.652 -1.017,0.764 v 0 c -1.488,0.386 -7.896,-2.785 -27.516,-14.255 v 0 c 4.435,2.664 8.489,5.105 11.989,7.226 v 0 c 16.1,9.751 16.1,9.751 15.213,11.287 v 0 c -0.222,0.386 -0.59,0.661 -1.035,0.776 v 0 c -1.451,0.377 -7.846,-2.644 -23.696,-11.636 v 0 c 5.521,3.392 9.666,5.96 12.626,7.826 v 0 c 1.786,1.126 3.176,2.018 4.112,2.642 v 0 c 1.503,1.003 2.591,1.728 1.842,3.024 v 0 c -0.201,0.348 -0.593,0.641 -0.982,0.742 v 0 c -1.105,0.288 -5.579,-1.82 -19.35,-9.716 v 0 c 18.947,11.436 18.716,11.833 17.805,13.41 v 0 c -0.2,0.347 -0.558,0.618 -0.946,0.719 v 0 c -0.646,0.17 -1.142,0.3 -11.48,-5.51 v 0 c 6.962,4.856 6.492,5.671 5.881,6.729 v 0 c -0.201,0.347 -0.591,0.639 -0.979,0.741 v 0 c -0.497,0.13 -1.001,0.263 -5.437,-1.983 v 0 c 3.122,2.206 4.599,3.564 4.799,4.311 v 0 c 0.121,0.448 0.063,0.909 -0.16,1.296 v 0 c -0.2,0.347 -0.547,0.609 -0.935,0.711 v 0 c -0.493,0.128 -0.824,0.217 -6.281,-2.843 v 0 c 4.011,2.952 4.217,3.717 4.378,4.314 v 0 c 0.127,0.476 0.07,0.961 -0.164,1.366 v 0 c -0.2,0.346 -0.561,0.619 -0.948,0.721 v 0 c -1.003,0.264 -1.796,0.473 -46.304,-25.367 v 0 C 229.978,316.164 195.52,295.906 162.198,276.315 v 0 c -23.757,-13.967 -47.85,-28.131 -68.08,-39.95 v 0 c 10.522,6.414 21.417,13.02 31.231,18.97 v 0 c 14.936,9.055 29.042,17.609 39.39,23.975 v 0 c 5.541,3.408 9.577,5.927 12.343,7.7 v 0 c 4.993,3.204 5.76,3.696 4.933,5.129 v 0 c -0.019,0.033 -0.04,0.065 -0.061,0.096 v 0 c 23.599,13.6 46.614,26.935 65.592,38.206 v 0 c 8.503,5.051 15.368,9.199 20.915,12.617 v 0 l -0.305,-1.153 c 0.492,-0.13 0.624,-0.165 4.806,2.249 v 0 c 1.535,0.887 3.619,2.105 6.466,3.77 v 0 c 5.487,3.206 12.999,7.598 13.723,7.933 v 0 l -0.557,1.387 0.383,1.451 c -0.369,0.098 -0.553,0.146 -2.462,-0.893 v 0 c 1.325,1.189 1.454,1.671 1.562,2.071 v 0 c 0.129,0.479 0.07,0.966 -0.165,1.373 v 0 c -0.2,0.345 -0.559,0.617 -0.946,0.719 v 0 c -0.487,0.128 -0.922,0.244 -6.503,-2.726 v 0 c 5.455,3.944 5.025,4.688 4.488,5.616 v 0 c -0.2,0.347 -0.542,0.607 -0.929,0.709 v 0 c -0.587,0.155 -0.96,0.254 -11.979,-6.028 v 0 c 5.27,3.514 7.699,5.565 7.978,6.603 v 0 c 0.124,0.464 0.067,0.939 -0.163,1.337 v 0 c -0.201,0.349 -0.588,0.637 -0.977,0.737 v 0 c -0.586,0.152 -2.036,-0.343 -5.538,-2.169 v 0 c 8.601,5.687 8.174,6.431 7.547,7.516 v 0 c -0.199,0.346 -0.541,0.605 -0.927,0.708 v 0 c -0.713,0.189 -1.119,0.297 -21.573,-11.5 v 0 c 19.178,11.931 18.815,12.557 17.982,14.002 v 0 c -0.22,0.379 -0.58,0.649 -1.015,0.762 v 0 c -0.987,0.256 -2.094,0.545 -25.54,-12.98 v 0 c 3.619,2.186 6.969,4.218 9.959,6.044 v 0 c 5.14,3.139 8.877,5.464 11.425,7.105 v 0 c 4.346,2.802 5.379,3.468 4.532,4.935 v 0 c -0.2,0.347 -0.594,0.642 -0.983,0.742 v 0 c -0.954,0.247 -3.634,-0.848 -13.608,-6.522 v 0 c 14.626,9.198 14.273,9.804 13.5,11.144 v 0 c -0.201,0.346 -0.536,0.602 -0.922,0.704 v 0 c -0.962,0.253 -0.963,0.254 -39.052,-22.139 v 0 c -4.568,-2.687 -9.479,-5.574 -14.425,-8.477 v 0 c 3.253,2.008 6.45,3.977 9.48,5.842 v 0 c 40.286,24.811 40.242,24.885 39.133,26.809 v 0 c -0.201,0.347 -0.557,0.616 -0.947,0.717 v 0 c -0.993,0.258 -1.341,0.345 -27.378,-15.174 v 0 c 28.651,17.785 28.597,17.874 27.615,19.575 v 0 c -0.199,0.346 -0.538,0.604 -0.925,0.705 v 0 c -0.928,0.245 -1.005,0.266 -29.051,-16.258 v 0 c 3.836,2.613 7.472,5.095 10.531,7.198 v 0 c 2.643,1.816 4.856,3.349 6.402,4.443 v 0 c 2.866,2.028 3.547,2.51 2.818,3.771 v 0 c -0.2,0.347 -0.532,0.6 -0.918,0.702 v 0 c -0.792,0.21 -0.791,0.21 -21.933,-12.191 v 0 c -1.277,-0.749 -2.591,-1.519 -3.916,-2.297 v 0 c 0.749,0.526 1.478,1.037 2.179,1.528 v 0 c 3.972,2.786 7.669,5.377 10.357,7.294 v 0 c 5.182,3.698 5.493,3.92 4.738,5.226 v 0 c -0.199,0.345 -0.527,0.597 -0.912,0.7 v 0 c -0.099,0.026 -0.182,0.048 -0.284,0.048 v 0 c -0.531,0 -1.571,-0.603 -8.037,-4.357 M 160.55,283.879 c 40.761,23.943 88.749,52.132 113.61,66.224 v 0 C 249.445,334.525 198.957,305.47 156.185,280.862 v 0 c -10.819,-6.226 -21.381,-12.304 -31.321,-18.043 v 0 c -7.163,-4.136 -14.003,-8.095 -20.381,-11.806 v 0 c 12.581,7.339 30.501,17.848 56.067,32.866 m 3.168,-10.15 c 46.272,27.203 97.081,57.07 122.456,71.444 v 0 C 257.645,327.071 193.112,289.986 142.879,261.118 v 0 C 132.4,255.096 122.162,249.213 112.516,243.656 v 0 c 15.783,9.25 33.199,19.489 51.202,30.073 m 38.182,39.02 c 12.532,7.364 25.192,14.803 36.812,21.612 v 0 c -16.161,-9.61 -34.783,-20.509 -53.14,-31.202 v 0 c 5.153,3.025 10.59,6.219 16.328,9.59 m 33.319,-16.432 c -2.773,-1.653 -5.641,-3.364 -8.603,-5.131 v 0 C 207.838,279.978 187.769,268.002 172.27,258.925 v 0 c 17.581,10.73 41.574,24.85 62.949,37.392 M 137.415,254.518 C 112.2,239.677 88.855,226.102 72.25,216.82 v 0 c 16.636,9.787 40.273,23.391 65.165,37.698"
         id="path16" />
    </clipPath>
    <linearGradient
       x1="0"
       y1="0"
       x2="1"
       y2="0"
       gradientUnits="userSpaceOnUse"
       gradientTransform="matrix(408.47278,0,0,-408.47278,42.760159,295.97977)"
       spreadMethod="pad"
       id="linearGradient40">
      <stop
         style="stop-opacity:1;stop-color:#7300f1"
         offset="0"
         id="stop24" />
      <stop
         style="stop-opacity:1;stop-color:#007edb"
         offset="0.22625021"
         id="stop26" />
      <stop
         style="stop-opacity:1;stop-color:#007edb"
         offset="0.226257"
         id="stop28" />
      <stop
         style="stop-opacity:1;stop-color:#75ff74"
         offset="0.45026542"
         id="stop30" />
      <stop
         style="stop-opacity:1;stop-color:#75ff74"
         offset="0.494413"
         id="stop32" />
      <stop
         style="stop-opacity:1;stop-color:#ffb32b"
         offset="0.74481322"
         id="stop34" />
      <stop
         style="stop-opacity:1;stop-color:#ffb32b"
         offset="0.77095"
         id="stop36" />
      <stop
         style="stop-opacity:1;stop-color:#e31a00"
         offset="1"
         id="stop38" />
    </linearGradient>
    <clipPath
       clipPathUnits="userSpaceOnUse"
       id="clipPath50">
      <path
         d="M 0,480 H 480 V 0 H 0 Z"
         id="path48" />
    </clipPath>
  </defs>
  <g
     id="g10"
     transform="matrix(1.3333333,0,0,-1.3333333,-56.184757,564.00301)">
    <g
       id="g12">
      <g
         id="g14"
         clip-path="url(#clipPath18)">
        <g
           id="g20">
          <g
             id="g22">
            <path
               d="m 243.195,392.369 c -6.048,-3.51 -15.189,-8.816 -15.838,-9.143 v 0 l 0.632,-1.358 1.299,0.75 -1.299,-0.751 -0.386,-1.449 c 0.045,-0.011 0.086,-0.023 0.127,-0.032 v 0 C 210.333,368.16 210.434,367.985 211.298,366.489 v 0 c 0.199,-0.346 0.534,-0.601 0.92,-0.703 v 0 c 0.748,-0.199 0.89,-0.236 15.45,8.28 v 0 c -4.437,-3.019 -8.592,-5.849 -11.877,-8.103 v 0 c -2.172,-1.491 -3.966,-2.73 -5.211,-3.607 v 0 c -2.292,-1.614 -3.065,-2.158 -2.348,-3.4 v 0 c 0.201,-0.347 0.538,-0.604 0.925,-0.706 v 0 c 0.237,-0.062 0.42,-0.11 1.033,0.132 v 0 C 190.844,346.11 191.176,345.54 192.025,344.071 v 0 c 0.201,-0.348 0.566,-0.623 0.955,-0.725 v 0 c 0.591,-0.153 1.37,-0.023 6.141,2.616 v 0 C 180.5,334.159 180.871,333.517 181.722,332.043 v 0 c 0.199,-0.346 0.543,-0.607 0.93,-0.709 v 0 c 0.619,-0.163 0.979,-0.26 11.357,5.672 v 0 c -25.923,-15.919 -25.588,-16.503 -24.664,-18.104 v 0 c 0.201,-0.347 0.557,-0.616 0.946,-0.717 v 0 c 0.21,-0.055 0.392,-0.102 0.817,0.017 v 0 c -1.343,-0.823 -2.657,-1.632 -3.939,-2.423 v 0 c -29.555,-18.234 -29.15,-18.936 -28.171,-20.631 v 0 c 0.201,-0.349 0.552,-0.613 0.941,-0.715 v 0 c 1.155,-0.299 1.393,-0.362 50.082,28.807 v 0 c 20.359,12.196 46.966,28.187 65.845,39.025 v 0 C 237.109,350.698 209.716,334.35 187.32,320.982 v 0 c -15.923,-9.502 -30.962,-18.479 -41.912,-25.121 v 0 c -5.857,-3.554 -10.12,-6.183 -13.034,-8.037 v 0 c -5.088,-3.237 -6.004,-3.82 -5.153,-5.294 v 0 c 0.2,-0.346 0.535,-0.602 0.921,-0.704 v 0 c 0.556,-0.148 0.839,-0.227 11.636,5.971 v 0 c -1.996,-1.189 -3.921,-2.34 -5.768,-3.447 v 0 c -25.308,-15.175 -25.05,-15.624 -24.085,-17.295 v 0 c 0.223,-0.386 0.592,-0.662 1.038,-0.777 v 0 c 0.038,-0.01 0.077,-0.021 0.118,-0.03 v 0 C 96.303,257.279 90.184,252.933 89.734,251.265 v 0 c -0.124,-0.464 -0.066,-0.936 0.163,-1.333 v 0 c 0.2,-0.347 0.554,-0.615 0.94,-0.717 v 0 c 0.689,-0.181 2.279,0.342 13.765,6.817 v 0 c -2.735,-1.606 -5.33,-3.133 -7.766,-4.572 v 0 C 89.121,246.9 83.512,243.528 79.691,241.152 v 0 c -6.654,-4.138 -7.47,-4.726 -6.596,-6.24 v 0 c 0.2,-0.347 0.539,-0.605 0.926,-0.708 v 0 c 0.74,-0.194 1.097,-0.289 25.635,13.996 v 0 c -3.724,-2.173 -7.264,-4.248 -10.591,-6.209 v 0 C 59.263,224.428 58.967,223.325 58.681,222.259 v 0 c -0.114,-0.424 -0.059,-0.864 0.156,-1.236 v 0 c 0.201,-0.348 0.577,-0.63 0.967,-0.732 v 0 c 0.766,-0.198 2.463,0.412 9.938,4.658 v 0 c -0.305,-0.188 -0.609,-0.377 -0.91,-0.563 v 0 C 41.279,207.344 41.456,207.037 42.438,205.337 v 0 c 0.199,-0.347 0.55,-0.612 0.936,-0.714 v 0 c 0.741,-0.195 1.244,-0.33 20.372,10.645 v 0 C 46.334,204.896 46.139,204.171 45.919,203.353 v 0 c -0.104,-0.385 -0.046,-0.855 0.153,-1.199 v 0 c 0.225,-0.391 0.598,-0.671 1.051,-0.789 v 0 c 1.184,-0.309 3.077,-0.804 47.562,24.767 v 0 c -0.084,-0.417 -0.019,-0.836 0.187,-1.194 v 0 c 0.2,-0.348 0.56,-0.618 0.947,-0.72 v 0 c 0.94,-0.247 1.503,-0.395 29.54,15.981 v 0 c 16.698,9.754 38.89,22.912 62.385,36.841 v 0 c 37.239,22.078 81.114,48.088 103.907,60.916 v 0 c -21.124,-13.34 -62.117,-37.193 -94.443,-56.002 v 0 c -20.156,-11.728 -39.192,-22.805 -53.12,-31.106 v 0 c -24.106,-14.368 -23.877,-14.765 -22.91,-16.439 v 0 c 0.201,-0.348 0.559,-0.619 0.946,-0.72 v 0 c 0.916,-0.241 1.523,-0.398 30.646,16.533 v 0 c -9.59,-6.366 -9.119,-7.181 -8.447,-8.345 v 0 c 0.201,-0.348 0.582,-0.634 0.97,-0.735 v 0 c 1.692,-0.44 10.178,4.167 66.141,37.499 v 0 c -8.225,-5.013 -15.985,-9.756 -22.867,-13.985 v 0 c -29.285,-18.002 -29.266,-18.034 -28.278,-19.745 v 0 c 0.201,-0.349 0.546,-0.61 0.935,-0.71 v 0 c 1.089,-0.283 1.258,-0.326 50.15,28.961 v 0 c 2.316,1.387 4.695,2.812 7.129,4.269 v 0 c -5.073,-3.071 -9.952,-6.038 -14.532,-8.84 v 0 C 168.974,247.182 169.28,246.652 170.294,244.897 v 0 c 0.201,-0.349 0.591,-0.64 0.98,-0.74 v 0 c 1.927,-0.498 12.363,5.49 69.796,40.039 v 0 c 0.328,0.198 0.657,0.396 0.986,0.594 v 0 c -9.924,-6.089 -19.352,-11.887 -27.4,-16.868 v 0 c -7.757,-4.803 -13.457,-8.367 -17.428,-10.898 v 0 c -2.17,-1.383 -3.826,-2.461 -4.921,-3.202 v 0 c -1.795,-1.215 -2.879,-1.947 -2.122,-3.258 v 0 c 0.201,-0.347 0.567,-0.623 0.955,-0.725 v 0 c 1.149,-0.302 5.252,1.607 35.934,19.553 v 0 c -28.111,-17.09 -27.766,-17.687 -26.825,-19.319 v 0 c 0.201,-0.347 0.546,-0.609 0.934,-0.711 v 0 c 1.096,-0.286 1.294,-0.336 49.99,28.625 v 0 c 17.042,10.134 37.387,22.234 53.4,31.558 v 0 c -14.306,-8.861 -32.171,-19.669 -47.229,-28.779 v 0 c -11.602,-7.019 -22.559,-13.648 -30.433,-18.495 v 0 c -4.207,-2.59 -7.265,-4.506 -9.349,-5.856 v 0 c -3.632,-2.353 -4.609,-2.986 -3.793,-4.398 v 0 c 0.201,-0.347 0.538,-0.604 0.926,-0.706 v 0 c 0.98,-0.255 0.999,-0.261 37.364,21.346 v 0 c 15.825,9.402 35.986,21.379 51.841,30.597 v 0 c -14.076,-8.852 -31.426,-19.509 -44.293,-27.412 v 0 c -7.625,-4.684 -14.356,-8.817 -19.165,-11.805 v 0 c -2.413,-1.5 -4.343,-2.71 -5.664,-3.56 v 0 c -2.291,-1.473 -3.239,-2.083 -2.482,-3.394 v 0 c 0.201,-0.347 0.55,-0.612 0.938,-0.713 v 0 c 1.037,-0.271 1.326,-0.344 38.886,21.975 v 0 c -9.593,-5.967 -18.487,-11.507 -25.37,-15.828 v 0 c -4.351,-2.734 -7.531,-4.749 -9.718,-6.162 v 0 c -4.264,-2.754 -4.812,-3.108 -4.038,-4.448 v 0 c 0.201,-0.347 0.547,-0.61 0.935,-0.712 v 0 c 1.013,-0.263 1.236,-0.319 37.266,21.146 v 0 c -1.692,-1.061 -3.332,-2.092 -4.905,-3.085 v 0 c -6.356,-4.012 -11.03,-7.023 -14.289,-9.206 v 0 c -5.501,-3.686 -6.635,-4.518 -5.766,-6.022 v 0 c 0.199,-0.348 0.539,-0.605 0.926,-0.707 v 0 c 0.993,-0.259 1.032,-0.27 36.9,21.001 v 0 c 5.313,3.151 11.032,6.542 16.789,9.948 v 0 c -9.87,-6.202 -19.607,-12.333 -27.303,-17.276 v 0 c -5.063,-3.25 -8.77,-5.681 -11.335,-7.432 v 0 c -4.172,-2.851 -5.432,-3.71 -4.575,-5.192 v 0 c 0.2,-0.349 0.564,-0.623 0.953,-0.724 v 0 c 1.126,-0.292 3.015,0.48 32.828,18.223 v 0 c -31.576,-19.746 -31.37,-20.111 -30.357,-21.865 v 0 c 0.201,-0.348 0.566,-0.623 0.956,-0.724 v 0 c 1.193,-0.308 2.993,0.464 36.246,20.407 v 0 C 274.332,254.516 274.49,254.242 275.387,252.688 v 0 c 0.201,-0.348 0.548,-0.611 0.936,-0.712 v 0 c 1.055,-0.276 1.275,-0.334 39.991,22.658 v 0 c 2.562,1.521 5.21,3.093 7.878,4.676 v 0 c -2.401,-1.564 -4.754,-3.096 -7,-4.559 v 0 c -6.837,-4.453 -13.169,-8.577 -17.782,-11.61 v 0 c -2.312,-1.52 -4.193,-2.767 -5.489,-3.644 v 0 c -2.372,-1.605 -3.171,-2.145 -2.437,-3.415 v 0 c 0.201,-0.348 0.559,-0.619 0.948,-0.72 v 0 c 0.949,-0.247 1.373,-0.359 24.065,13.058 v 0 c -21.399,-13.934 -21.203,-14.278 -20.312,-15.822 v 0 c 0.2,-0.347 0.547,-0.609 0.935,-0.711 v 0 c 0.969,-0.253 1.157,-0.306 28.915,16.171 v 0 c -23.207,-15.537 -23.201,-15.55 -22.272,-17.16 v 0 c 0.2,-0.346 0.543,-0.607 0.931,-0.709 v 0 c 0.834,-0.219 1.14,-0.3 22.328,12.137 v 0 c -0.136,-0.091 -0.27,-0.181 -0.405,-0.272 v 0 c -4.293,-2.883 -8.153,-5.474 -10.933,-7.358 v 0 c -1.397,-0.945 -2.522,-1.713 -3.293,-2.251 v 0 c -1.4,-0.973 -2.325,-1.617 -1.616,-2.845 v 0 c 0.201,-0.348 0.55,-0.612 0.938,-0.714 v 0 c 0.797,-0.208 1.201,-0.31 19.623,10.493 v 0 c -9.822,-6.809 -9.662,-7.085 -8.924,-8.363 v 0 c 0.201,-0.347 0.544,-0.607 0.932,-0.709 v 0 c 0.824,-0.216 1.048,-0.276 17.613,9.493 v 0 c -1.897,-1.298 -3.737,-2.555 -5.449,-3.726 v 0 c -4.539,-3.102 -8.679,-5.931 -11.672,-8.006 v 0 c -1.505,-1.045 -2.722,-1.9 -3.557,-2.505 v 0 c -1.383,-1.002 -2.383,-1.727 -1.67,-2.961 v 0 c 0.201,-0.346 0.545,-0.607 0.932,-0.709 v 0 c 0.912,-0.239 1.115,-0.294 24.821,13.741 v 0 C 325.353,242.721 325.65,242.206 326.461,240.8 v 0 c 0.2,-0.346 0.546,-0.609 0.933,-0.711 v 0 c 0.822,-0.216 1.192,-0.316 22.677,12.253 v 0 c -3.63,-2.325 -6.937,-4.452 -9.586,-6.181 v 0 c -2.193,-1.432 -3.787,-2.496 -4.874,-3.251 v 0 c -1.811,-1.26 -2.904,-2.019 -2.146,-3.333 v 0 c 0.201,-0.347 0.545,-0.608 0.934,-0.709 v 0 c 0.951,-0.248 1.068,-0.278 24.539,13.71 v 0 c -5.044,-3.437 -9.82,-6.695 -13.497,-9.222 v 0 c -2.154,-1.478 -3.932,-2.708 -5.165,-3.574 v 0 c -2.343,-1.647 -3.051,-2.144 -2.337,-3.381 v 0 c 0.2,-0.346 0.531,-0.599 0.917,-0.702 v 0 c 0.772,-0.203 0.772,-0.204 23.057,12.858 v 0 c 0.875,0.513 1.77,1.037 2.681,1.571 v 0 c -4.588,-3.081 -8.844,-5.944 -12.128,-8.187 v 0 c -2.07,-1.415 -3.58,-2.465 -4.617,-3.211 v 0 c -1.807,-1.299 -2.802,-2.016 -2.068,-3.286 v 0 c 0.201,-0.348 0.542,-0.607 0.929,-0.709 v 0 c 0.822,-0.217 1.122,-0.291 22.916,12.496 v 0 c -3.798,-2.652 -7.296,-5.096 -9.946,-6.963 v 0 c -1.53,-1.077 -2.778,-1.962 -3.639,-2.585 v 0 c -1.572,-1.135 -2.436,-1.76 -1.737,-2.971 v 0 c 0.201,-0.347 0.538,-0.603 0.924,-0.706 v 0 c 0.732,-0.192 0.966,-0.247 15.727,8.37 v 0 c -1.744,-1.187 -3.4,-2.318 -4.918,-3.362 v 0 c -2.822,-1.941 -4.893,-3.39 -6.332,-4.431 v 0 c -2.546,-1.84 -3.499,-2.53 -2.746,-3.835 v 0 c 0.201,-0.347 0.544,-0.608 0.932,-0.709 v 0 c 0.864,-0.226 1.043,-0.276 18.911,10.318 v 0 c -14.26,-9.94 -14.133,-10.164 -13.303,-11.601 v 0 c 0.201,-0.347 0.537,-0.602 0.923,-0.704 v 0 c 0.901,-0.238 0.916,-0.24 24.451,13.621 v 0 c -5.154,-3.496 -10.018,-6.796 -13.618,-9.297 v 0 c -6.54,-4.542 -7.075,-4.913 -6.254,-6.334 v 0 c 0.2,-0.347 0.54,-0.606 0.928,-0.707 v 0 c 0.861,-0.226 0.986,-0.254 18.689,10.218 v 0 c -13.241,-9.108 -13.178,-9.217 -12.391,-10.581 v 0 c 0.2,-0.346 0.531,-0.598 0.917,-0.7 v 0 c 0.718,-0.19 0.717,-0.193 16.824,9.249 v 0 c 0.751,0.441 1.524,0.894 2.311,1.355 v 0 c -2.223,-1.581 -4.315,-3.079 -6.053,-4.352 v 0 c -5.369,-3.929 -6.236,-4.622 -5.418,-6.038 v 0 c 0.199,-0.346 0.531,-0.599 0.918,-0.701 v 0 c 0.661,-0.174 0.657,-0.173 10.767,5.794 v 0 c 1.96,1.158 4.248,2.508 6.675,3.939 v 0 c -13.5,-9.713 -13.346,-9.985 -12.558,-11.349 v 0 c 0.2,-0.346 0.534,-0.602 0.92,-0.703 v 0 c 0.781,-0.206 0.89,-0.24 17.13,9.272 v 0 c -0.924,-0.672 -1.811,-1.316 -2.638,-1.918 v 0 c -2.867,-2.084 -5.445,-3.959 -7.3,-5.325 v 0 c -3.766,-2.773 -4.074,-2.999 -3.365,-4.227 v 0 c 0.2,-0.347 0.53,-0.599 0.918,-0.701 v 0 c 0.704,-0.188 0.706,-0.187 13.225,7.145 v 0 c 1.013,0.593 2.066,1.209 3.124,1.829 v 0 c -0.005,-0.005 -0.008,-0.009 -0.013,-0.013 v 0 c -9.158,-8.038 -9.158,-8.038 -8.435,-9.29 v 0 c 0.199,-0.346 0.531,-0.599 0.917,-0.701 v 0 c 0.613,-0.163 0.742,-0.197 10.639,5.552 v 0 c -1.323,-1.031 -2.595,-2.027 -3.771,-2.954 v 0 c -2.028,-1.6 -3.524,-2.801 -4.575,-3.673 v 0 c -1.887,-1.568 -2.747,-2.283 -2.049,-3.49 v 0 c 0.199,-0.346 0.53,-0.598 0.916,-0.7 v 0 c 0.665,-0.176 0.664,-0.176 10.376,5.518 v 0 c 1.514,0.887 3.206,1.88 4.926,2.886 v 0 c -2.051,-1.787 -4.057,-3.54 -5.686,-4.977 v 0 c -1.121,-0.99 -2.064,-1.83 -2.722,-2.432 v 0 c -1.196,-1.096 -1.92,-1.757 -1.29,-2.85 v 0 c 0.2,-0.344 0.529,-0.598 0.915,-0.7 v 0 c 0.701,-0.186 0.746,-0.201 16.406,8.93 v 0 c -10.477,-8.696 -10.408,-8.818 -9.688,-10.064 v 0 c 0.199,-0.345 0.528,-0.597 0.914,-0.7 v 0 c 0.596,-0.159 0.671,-0.178 10.604,5.593 v 0 c -0.181,-0.155 -0.359,-0.307 -0.531,-0.453 v 0 c -6.792,-5.78 -6.792,-5.78 -6.127,-6.932 v 0 c 0.199,-0.346 0.53,-0.599 0.915,-0.701 v 0 c 0.562,-0.149 0.71,-0.196 8.425,4.279 v 0 c -0.814,-0.614 -1.596,-1.207 -2.325,-1.762 v 0 c -6.692,-5.093 -6.821,-5.189 -6.053,-6.518 v 0 c 0.2,-0.346 0.534,-0.601 0.921,-0.703 v 0 c 0.832,-0.221 0.848,-0.222 17.333,9.477 v 0 c -10.175,-8.667 -10.166,-8.679 -9.463,-9.898 v 0 c 0.199,-0.344 0.529,-0.596 0.913,-0.7 v 0 c 0.588,-0.157 0.66,-0.175 11.354,6.025 v 0 c -9.674,-8.279 -9.569,-8.458 -8.903,-9.611 v 0 c 0.198,-0.345 0.527,-0.596 0.911,-0.699 v 0 c 0.511,-0.137 0.603,-0.162 5.59,2.717 v 0 c 1.103,0.637 2.446,1.416 4.084,2.366 v 0 c 4.911,2.85 11.637,6.751 12.137,7.01 v 0 l -0.65,1.35 0.386,1.45 c -0.566,0.15 -0.633,0.165 -9.121,-4.745 v 0 c 1.452,1.241 2.837,2.418 3.987,3.397 v 0 c 1.675,1.428 3.157,2.689 4.216,3.598 v 0 c 2.187,1.88 2.643,2.27 2.004,3.377 v 0 c -0.199,0.346 -0.527,0.597 -0.913,0.7 v 0 c -0.624,0.166 -0.618,0.172 -9.851,-5.193 v 0 c -0.717,-0.415 -1.466,-0.85 -2.228,-1.292 v 0 c 10.069,8.582 10.024,8.658 9.326,9.868 v 0 c -0.201,0.347 -0.533,0.6 -0.919,0.702 v 0 c -0.677,0.179 -0.725,0.195 -10.816,-5.74 v 0 c 2.584,1.929 4.96,3.704 6.726,5.038 v 0 c 0.968,0.731 1.754,1.332 2.294,1.756 v 0 c 0.915,0.716 1.86,1.457 1.188,2.62 v 0 c -0.199,0.346 -0.529,0.598 -0.915,0.701 v 0 c -0.646,0.17 -0.647,0.168 -10.997,-5.869 v 0 c -1.649,-0.962 -3.494,-2.038 -5.366,-3.13 v 0 c 6.605,5.685 6.482,5.901 5.848,6.997 v 0 c -0.198,0.345 -0.528,0.597 -0.913,0.699 v 0 c -0.627,0.169 -0.628,0.167 -9.567,-5.026 v 0 c -0.056,-0.033 -0.11,-0.065 -0.165,-0.098 v 0 c 0.377,0.314 0.749,0.621 1.11,0.921 v 0 c 10.319,8.548 10.319,8.548 9.606,9.786 v 0 c -0.2,0.345 -0.529,0.597 -0.915,0.7 v 0 c -0.655,0.173 -0.657,0.175 -12.365,-6.655 v 0 c -1.961,-1.142 -4.11,-2.396 -6.232,-3.631 v 0 c 0.287,0.25 0.569,0.495 0.844,0.735 v 0 c 2.306,2.009 4.512,3.93 6.135,5.36 v 0 c 3.391,2.983 3.594,3.162 2.949,4.278 v 0 c -0.198,0.346 -0.531,0.6 -0.918,0.702 v 0 c -0.671,0.178 -0.785,0.217 -10.598,-5.519 v 0 c 1.035,0.802 2.023,1.565 2.928,2.264 v 0 c 2.445,1.89 4.646,3.591 6.231,4.829 v 0 c 3.248,2.536 3.587,2.802 2.908,3.978 v 0 c -0.199,0.345 -0.529,0.597 -0.914,0.699 v 0 c -0.635,0.168 -0.636,0.171 -9.505,-5.01 v 0 c -2.423,-1.413 -5.397,-3.15 -8.31,-4.846 v 0 c 8.89,7.811 8.838,7.897 8.116,9.149 v 0 c -0.2,0.346 -0.531,0.6 -0.917,0.702 v 0 c -0.451,0.119 -0.63,0.168 -3.916,-1.693 v 0 c 11.262,8.272 11.103,8.549 10.364,9.828 v 0 c -0.199,0.346 -0.53,0.598 -0.916,0.701 v 0 c -0.689,0.181 -0.687,0.181 -13.831,-7.528 v 0 c -1.089,-0.638 -2.245,-1.316 -3.437,-2.015 v 0 c 1.417,1.013 2.771,1.98 4,2.858 v 0 c 3.186,2.274 6.07,4.332 8.147,5.837 v 0 c 4.119,2.983 4.455,3.227 3.73,4.483 v 0 c -0.2,0.346 -0.542,0.605 -0.928,0.707 v 0 c -0.739,0.195 -1.03,0.271 -16.408,-8.729 v 0 c 1.449,1.035 2.8,2.01 3.984,2.874 v 0 c 5.09,3.725 6.151,4.501 5.315,5.947 v 0 c -0.199,0.346 -0.533,0.6 -0.919,0.703 v 0 c -0.679,0.179 -0.844,0.228 -11.746,-6.127 v 0 c 9.817,6.876 9.614,7.224 8.887,8.484 v 0 c -0.201,0.347 -0.54,0.605 -0.927,0.707 v 0 c -0.768,0.2 -0.923,0.241 -13.442,-7.144 v 0 c 16.16,11.036 15.996,11.319 15.153,12.78 v 0 c -0.2,0.346 -0.536,0.603 -0.923,0.705 v 0 c -0.92,0.241 -0.965,0.255 -26.567,-14.82 v 0 c 17.244,11.961 17.22,12.003 16.375,13.466 v 0 c -0.201,0.348 -0.542,0.607 -0.93,0.709 v 0 c -0.792,0.207 -0.968,0.253 -14.512,-7.764 v 0 c 3.865,2.613 7.443,5.036 10.27,6.972 v 0 c 1.917,1.314 3.491,2.404 4.576,3.179 v 0 c 1.864,1.33 2.799,1.998 2.075,3.254 v 0 c -0.2,0.346 -0.532,0.6 -0.918,0.702 v 0 c -0.754,0.199 -0.748,0.2 -19.607,-10.879 v 0 c -1.248,-0.733 -2.541,-1.494 -3.862,-2.268 v 0 c 2.725,1.907 5.327,3.735 7.612,5.352 v 0 c 2.51,1.774 4.637,3.294 6.128,4.386 v 0 c 2.71,1.987 3.439,2.521 2.711,3.779 v 0 c -0.199,0.346 -0.531,0.599 -0.918,0.701 v 0 c -0.709,0.186 -0.711,0.184 -15.99,-8.821 v 0 c -1.003,-0.591 -2.058,-1.214 -3.154,-1.86 v 0 c 17.684,11.913 17.562,12.121 16.74,13.545 v 0 c -0.2,0.347 -0.535,0.603 -0.922,0.704 v 0 c -0.803,0.214 -0.956,0.256 -22.274,-12.213 v 0 c 3.379,2.307 6.567,4.489 9.3,6.368 v 0 c 10.005,6.882 10.005,6.882 9.237,8.212 v 0 c -0.2,0.348 -0.552,0.614 -0.941,0.716 v 0 c -0.516,0.134 -0.837,0.218 -4.58,-1.844 v 0 c 9.553,6.42 9.245,6.953 8.556,8.147 v 0 c -0.2,0.347 -0.532,0.6 -0.919,0.701 v 0 c -0.776,0.206 -0.779,0.204 -21.973,-12.298 v 0 c -6.681,-3.94 -14.726,-8.686 -22.116,-13.01 v 0 c 6.605,4.472 13.548,9.106 18.728,12.564 v 0 c 4.146,2.767 7.786,5.197 10.38,6.95 v 0 c 1.306,0.882 2.349,1.595 3.06,2.094 v 0 c 1.189,0.834 2.215,1.555 1.504,2.789 v 0 c -0.201,0.347 -0.546,0.608 -0.934,0.71 v 0 c -0.993,0.261 -1.157,0.301 -31.167,-17.491 v 0 c 19.057,13.113 18.874,13.427 18.035,14.878 v 0 c -0.2,0.348 -0.535,0.603 -0.922,0.705 v 0 c -0.818,0.213 -0.848,0.219 -17.288,-9.516 v 0 c 13.27,9.124 13.16,9.313 12.344,10.726 v 0 c -0.2,0.348 -0.533,0.601 -0.921,0.701 v 0 c -0.698,0.183 -0.698,0.182 -13.689,-7.517 v 0 c -0.746,-0.442 -1.529,-0.907 -2.346,-1.391 v 0 c 1.456,0.988 2.865,1.947 4.202,2.86 v 0 c 3.604,2.464 6.265,4.311 8.134,5.65 v 0 c 3.456,2.475 4.277,3.062 3.504,4.402 v 0 c -0.2,0.346 -0.533,0.6 -0.92,0.702 v 0 c -0.777,0.203 -0.776,0.203 -20.108,-11.203 v 0 c -1.746,-1.03 -3.607,-2.127 -5.527,-3.259 v 0 c 22.121,14.849 21.989,15.08 21.072,16.668 v 0 c -0.2,0.348 -0.543,0.609 -0.931,0.71 v 0 c -0.869,0.227 -1.071,0.281 -20.169,-11.028 v 0 c 27.667,17.898 27.625,17.968 26.623,19.705 v 0 c -0.201,0.347 -0.544,0.607 -0.933,0.709 v 0 c -0.916,0.238 -1.067,0.279 -24.155,-13.461 v 0 c 3.706,2.426 7.251,4.754 10.412,6.845 v 0 c 4.492,2.971 7.8,5.188 10.113,6.782 v 0 c 4.271,2.943 5.042,3.473 4.25,4.843 v 0 c -0.2,0.348 -0.555,0.616 -0.943,0.717 v 0 c -0.99,0.259 -1.386,0.36 -29.99,-16.548 v 0 c 3.718,2.36 7.152,4.549 10.152,6.483 v 0 c 3.567,2.3 6.172,4.014 7.963,5.24 v 0 c 2.989,2.046 4.107,2.811 3.303,4.203 v 0 c -0.201,0.348 -0.583,0.633 -0.971,0.733 v 0 c -1.272,0.33 -4.941,-1.462 -30.536,-16.729 v 0 c 25.944,16.313 25.67,16.781 24.724,18.421 v 0 c -0.201,0.348 -0.559,0.618 -0.948,0.719 v 0 c -1.076,0.28 -1.447,0.373 -35.39,-19.867 v 0 c 10.318,6.478 20.047,12.587 27.338,17.25 v 0 c 3.966,2.537 6.859,4.422 8.845,5.761 v 0 c 3.408,2.299 4.437,2.992 3.632,4.386 v 0 c -0.201,0.347 -0.566,0.622 -0.954,0.724 v 0 c -1.081,0.283 -4.26,-1.14 -28.809,-15.51 v 0 c 5.219,3.225 9.964,6.166 13.806,8.571 v 0 c 3.418,2.139 5.904,3.716 7.601,4.823 v 0 c 3.13,2.04 3.97,2.588 3.193,3.935 v 0 c -0.201,0.347 -0.583,0.635 -0.971,0.735 v 0 c -1.112,0.289 -4.925,-1.474 -21.885,-11.328 v 0 c 16.64,10.483 16.593,10.563 15.73,12.057 v 0 c -0.201,0.349 -0.568,0.625 -0.957,0.726 v 0 c -0.804,0.21 -2.229,-0.211 -13.914,-6.926 v 0 c 10.228,6.752 9.89,7.337 9.189,8.551 v 0 c -0.2,0.348 -0.58,0.631 -0.968,0.734 v 0 c -0.667,0.173 -2.598,-0.548 -8.067,-3.485 v 0 c 12.111,7.824 11.748,8.448 10.999,9.746 v 0 c -0.201,0.347 -0.585,0.635 -0.973,0.737 v 0 c -1.033,0.269 -4.73,-1.385 -18.871,-9.481 v 0 c 15.082,9.517 14.664,10.244 13.88,11.602 v 0 c -0.2,0.347 -0.542,0.608 -0.929,0.709 v 0 c -1.09,0.286 -1.255,0.331 -53.926,-30.832 v 0 c -4.246,-2.512 -8.697,-5.146 -13.234,-7.827 v 0 c 2.832,1.735 5.637,3.453 8.383,5.136 v 0 c 15.009,9.191 29.185,17.873 39.713,24.376 v 0 c 5.644,3.485 9.765,6.052 12.602,7.846 v 0 c 1.512,0.957 2.689,1.714 3.482,2.241 v 0 c 1.275,0.848 2.377,1.581 1.639,2.858 v 0 c -0.219,0.38 -0.58,0.652 -1.017,0.764 v 0 c -1.488,0.386 -7.896,-2.785 -27.516,-14.255 v 0 c 4.435,2.664 8.489,5.105 11.989,7.226 v 0 c 16.1,9.751 16.1,9.751 15.213,11.287 v 0 c -0.222,0.386 -0.59,0.661 -1.035,0.776 v 0 c -1.451,0.377 -7.846,-2.644 -23.696,-11.636 v 0 c 5.521,3.392 9.666,5.96 12.626,7.826 v 0 c 1.786,1.126 3.176,2.018 4.112,2.642 v 0 c 1.503,1.003 2.591,1.728 1.842,3.024 v 0 c -0.201,0.348 -0.593,0.641 -0.982,0.742 v 0 c -1.105,0.288 -5.579,-1.82 -19.35,-9.716 v 0 c 18.947,11.436 18.716,11.833 17.805,13.41 v 0 c -0.2,0.347 -0.558,0.618 -0.946,0.719 v 0 c -0.646,0.17 -1.142,0.3 -11.48,-5.51 v 0 c 6.962,4.856 6.492,5.671 5.881,6.729 v 0 c -0.201,0.347 -0.591,0.639 -0.979,0.741 v 0 c -0.497,0.13 -1.001,0.263 -5.437,-1.983 v 0 c 3.122,2.206 4.599,3.564 4.799,4.311 v 0 c 0.121,0.448 0.063,0.909 -0.16,1.296 v 0 c -0.2,0.347 -0.547,0.609 -0.935,0.711 v 0 c -0.493,0.128 -0.824,0.217 -6.281,-2.843 v 0 c 4.011,2.952 4.217,3.717 4.378,4.314 v 0 c 0.127,0.476 0.07,0.961 -0.164,1.366 v 0 c -0.2,0.346 -0.561,0.619 -0.948,0.721 v 0 c -1.003,0.264 -1.796,0.473 -46.304,-25.367 v 0 C 229.978,316.164 195.52,295.906 162.198,276.315 v 0 c -23.757,-13.967 -47.85,-28.131 -68.08,-39.95 v 0 c 10.522,6.414 21.417,13.02 31.231,18.97 v 0 c 14.936,9.055 29.042,17.609 39.39,23.975 v 0 c 5.541,3.408 9.577,5.927 12.343,7.7 v 0 c 4.993,3.204 5.76,3.696 4.933,5.129 v 0 c -0.019,0.033 -0.04,0.065 -0.061,0.096 v 0 c 23.599,13.6 46.614,26.935 65.592,38.206 v 0 c 8.503,5.051 15.368,9.199 20.915,12.617 v 0 l -0.305,-1.153 c 0.492,-0.13 0.624,-0.165 4.806,2.249 v 0 c 1.535,0.887 3.619,2.105 6.466,3.77 v 0 c 5.487,3.206 12.999,7.598 13.723,7.933 v 0 l -0.557,1.387 0.383,1.451 c -0.369,0.098 -0.553,0.146 -2.462,-0.893 v 0 c 1.325,1.189 1.454,1.671 1.562,2.071 v 0 c 0.129,0.479 0.07,0.966 -0.165,1.373 v 0 c -0.2,0.345 -0.559,0.617 -0.946,0.719 v 0 c -0.487,0.128 -0.922,0.244 -6.503,-2.726 v 0 c 5.455,3.944 5.025,4.688 4.488,5.616 v 0 c -0.2,0.347 -0.542,0.607 -0.929,0.709 v 0 c -0.587,0.155 -0.96,0.254 -11.979,-6.028 v 0 c 5.27,3.514 7.699,5.565 7.978,6.603 v 0 c 0.124,0.464 0.067,0.939 -0.163,1.337 v 0 c -0.201,0.349 -0.588,0.637 -0.977,0.737 v 0 c -0.586,0.152 -2.036,-0.343 -5.538,-2.169 v 0 c 8.601,5.687 8.174,6.431 7.547,7.516 v 0 c -0.199,0.346 -0.541,0.605 -0.927,0.708 v 0 c -0.713,0.189 -1.119,0.297 -21.573,-11.5 v 0 c 19.178,11.931 18.815,12.557 17.982,14.002 v 0 c -0.22,0.379 -0.58,0.649 -1.015,0.762 v 0 c -0.987,0.256 -2.094,0.545 -25.54,-12.98 v 0 c 3.619,2.186 6.969,4.218 9.959,6.044 v 0 c 5.14,3.139 8.877,5.464 11.425,7.105 v 0 c 4.346,2.802 5.379,3.468 4.532,4.935 v 0 c -0.2,0.347 -0.594,0.642 -0.983,0.742 v 0 c -0.954,0.247 -3.634,-0.848 -13.608,-6.522 v 0 c 14.626,9.198 14.273,9.804 13.5,11.144 v 0 c -0.201,0.346 -0.536,0.602 -0.922,0.704 v 0 c -0.962,0.253 -0.963,0.254 -39.052,-22.139 v 0 c -4.568,-2.687 -9.479,-5.574 -14.425,-8.477 v 0 c 3.253,2.008 6.45,3.977 9.48,5.842 v 0 c 40.286,24.811 40.242,24.885 39.133,26.809 v 0 c -0.201,0.347 -0.557,0.616 -0.947,0.717 v 0 c -0.993,0.258 -1.341,0.345 -27.378,-15.174 v 0 c 28.651,17.785 28.597,17.874 27.615,19.575 v 0 c -0.199,0.346 -0.538,0.604 -0.925,0.705 v 0 c -0.928,0.245 -1.005,0.266 -29.051,-16.258 v 0 c 3.836,2.613 7.472,5.095 10.531,7.198 v 0 c 2.643,1.816 4.856,3.349 6.402,4.443 v 0 c 2.866,2.028 3.547,2.51 2.818,3.771 v 0 c -0.2,0.347 -0.532,0.6 -0.918,0.702 v 0 c -0.792,0.21 -0.791,0.21 -21.933,-12.191 v 0 c -1.277,-0.749 -2.591,-1.519 -3.916,-2.297 v 0 c 0.749,0.526 1.478,1.037 2.179,1.528 v 0 c 3.972,2.786 7.669,5.377 10.357,7.294 v 0 c 5.182,3.698 5.493,3.92 4.738,5.226 v 0 c -0.199,0.345 -0.527,0.597 -0.912,0.7 v 0 c -0.099,0.026 -0.182,0.048 -0.284,0.048 v 0 c -0.531,0 -1.571,-0.603 -8.037,-4.357 M 160.55,283.879 c 40.761,23.943 88.749,52.132 113.61,66.224 v 0 C 249.445,334.525 198.957,305.47 156.185,280.862 v 0 c -10.819,-6.226 -21.381,-12.304 -31.321,-18.043 v 0 c -7.163,-4.136 -14.003,-8.095 -20.381,-11.806 v 0 c 12.581,7.339 30.501,17.848 56.067,32.866 m 3.168,-10.15 c 46.272,27.203 97.081,57.07 122.456,71.444 v 0 C 257.645,327.071 193.112,289.986 142.879,261.118 v 0 C 132.4,255.096 122.162,249.213 112.516,243.656 v 0 c 15.783,9.25 33.199,19.489 51.202,30.073 m 38.182,39.02 c 12.532,7.364 25.192,14.803 36.812,21.612 v 0 c -16.161,-9.61 -34.783,-20.509 -53.14,-31.202 v 0 c 5.153,3.025 10.59,6.219 16.328,9.59 m 33.319,-16.432 c -2.773,-1.653 -5.641,-3.364 -8.603,-5.131 v 0 C 207.838,279.978 187.769,268.002 172.27,258.925 v 0 c 17.581,10.73 41.574,24.85 62.949,37.392 M 137.415,254.518 C 112.2,239.677 88.855,226.102 72.25,216.82 v 0 c 16.636,9.787 40.273,23.391 65.165,37.698"
               style="fill:url(#linearGradient40);stroke:none"
               id="path42" />
          </g>
        </g>
      </g>
    </g>
    <g
       id="g44">
      <g
         id="g46"
         clip-path="url(#clipPath50)">
        <g
           id="g52"
           transform="translate(216.7946,365.756)">
          <path
             d="m 0,0 c -1.342,-1.845 0.896,-6.391 4.544,-8.404 4.566,-2.519 8.965,0.244 11.359,-2.101 1.07,-1.048 1.356,-2.741 0,-8.403 -1.956,-8.165 -4.135,-12.63 -6.816,-21.01 -2.102,-6.57 -2.293,-8.692 -2.272,-10.504 0.06,-4.993 1.696,-4.498 2.272,-10.505 0.41,-4.267 0.346,-12.442 2.272,-14.706 0.084,-0.098 0.457,-0.522 0.874,-1.154 0.871,-1.324 1.196,-2.447 1.398,-3.048 0.206,-0.613 0.368,-0.901 0.456,-1.125 0.942,-2.407 1.761,-5.005 1.816,-5.178 0.791,-2.506 1.224,-3.405 2.272,-6.303 2.288,-6.331 3.823,-12.017 4.543,-14.706 1.383,-5.162 2.079,-7.799 2.272,-10.505 0.1,-1.39 0.066,-3.727 0,-8.403 -0.086,-6.05 -0.205,-6.596 0,-8.404 0.507,-4.461 1.632,-4.624 2.272,-8.404 0.218,-1.287 1.401,-8.28 -2.272,-14.706 -2.183,-3.82 -4.749,-5.107 -4.543,-8.404 0.021,-0.352 0.236,-3.147 2.271,-4.202 2.794,-1.448 7.769,1.032 9.087,4.202 0.866,2.08 -0.53,2.806 0,6.303 0.481,3.168 1.81,3.771 2.272,6.303 0.527,2.884 -1.976,3.884 -2.272,8.403 -0.053,0.813 -0.027,1.357 0,2.101 v 14.707 10.504 c 0,15.479 -2.877,21.619 0,23.11 1.905,0.987 5.092,-0.52 6.816,-2.1 1.46,-1.34 2.716,-3.505 2.272,-16.808 -0.233,-6.973 -0.652,-8.595 0,-12.605 0.267,-1.643 0.403,-1.885 1.097,-4.234 0,0 0.491,-1.422 1.175,-4.17 0.811,-3.263 0.025,-4.429 0,-12.606 v -2.101 -6.302 c -10e-4,-6.298 -0.004,-6.266 0,-6.303 0.449,-5.054 0.674,-7.58 2.271,-8.404 1.992,-1.026 5.418,0.073 6.816,2.101 1.061,1.54 0.679,3.219 0,6.303 -0.771,3.499 -1.384,7.029 -2.272,10.505 -1.262,4.94 -0.225,5.702 0,21.009 0.124,8.409 -0.198,7.527 0,10.504 0.769,11.523 4.371,23.256 6.815,23.111 0.749,-0.045 1.256,-1.437 2.272,-4.202 1.332,-3.626 1.005,-5.215 2.272,-8.404 0.814,-2.049 1.705,-3.296 2.272,-4.202 3.645,-5.823 4.329,-14.185 4.544,-16.807 0.247,-3.022 1.428,-16.783 -6.816,-29.413 -2.803,-4.294 -5.615,-6.861 -4.544,-8.404 1.443,-2.077 9.244,-1.323 11.36,2.101 1.102,1.784 0.334,3.761 2.271,6.303 0.115,0.15 0.358,0.348 0.641,0.709 1.136,1.447 1.4,2.963 1.495,3.493 0.627,3.515 1.833,6.943 2.101,10.504 0.798,10.627 4.949,11.537 4.851,21.01 -0.055,5.301 -1.377,9.753 -2.272,12.605 -2.707,8.624 -6.432,12.417 -4.544,14.707 1.579,1.913 6.24,1.762 9.087,0 2.873,-1.778 2.733,-4.486 4.544,-8.404 3.192,-6.905 7.196,-6.516 11.359,-12.606 1.51,-2.208 2.517,-7.808 4.544,-18.908 1.918,-10.502 2.864,-15.816 2.272,-18.908 -1.243,-6.485 -4.315,-9.679 -2.272,-12.606 1.82,-2.609 6.828,-3.751 9.087,-2.101 3.018,2.205 -0.617,8.12 -2.272,18.909 -1.998,13.029 1.407,16.767 1.256,23.022 -0.051,2.122 -0.388,1.475 -1.256,6.39 -1.439,8.15 -0.678,9.35 -2.272,12.606 -1.447,2.958 -2.732,3.311 -3.766,4.792 -0.252,0.361 -0.579,0.878 -0.777,1.511 -0.584,1.864 0.368,3.705 0.812,4.447 0.601,1.961 1.271,4.759 1.46,8.158 0.19,3.426 0.203,15.802 -6.816,23.11 -10.722,11.165 -28.715,2.632 -38.621,14.707 -1.378,1.68 -0.272,0.997 -4.543,10.505 -8.255,18.375 -14.443,26.188 -11.359,29.412 1.835,1.919 4.632,-0.176 9.087,2.101 6.063,3.1 8.665,11.085 6.815,12.606 -1.048,0.862 -3.267,-1.247 -11.359,-4.202 -3.261,-1.191 -8.24,-3.009 -8.761,-2.101 -0.512,0.893 3.38,4.245 6.303,6.303 11.975,8.43 20.479,4.137 34.264,10.505 4.53,2.092 11.299,5.421 15.902,12.605 7.965,12.429 3.369,27.285 2.272,27.312 -0.611,0.015 -0.885,-4.559 -4.543,-18.908 -1.701,-6.671 -2.856,-10.444 -4.544,-10.505 -1.634,-0.059 -2.021,3.42 -6.816,8.404 -2.691,2.798 -3.217,2.375 -4.543,4.202 -3.996,5.504 -1.51,12.492 -2.272,12.605 -0.571,0.085 -2.666,-3.741 -2.272,-8.403 0.086,-1.011 0.398,-3.356 4.544,-10.505 3.755,-6.476 4.884,-6.901 4.543,-8.404 -1.362,-6.007 -19.638,-8.26 -20.446,-6.303 -0.32,0.777 2.413,1.483 4.544,4.202 6.361,8.119 -1.154,23.321 -2.272,23.11 -0.622,-0.117 1.47,-4.871 0,-12.605 C 63.179,27.139 61.467,19.184 54.524,12.606 54.093,12.198 49.693,9.532 40.893,4.202 36.186,1.35 34.543,0.385 31.805,0 26.889,-0.691 22.696,1.052 20.447,2.101 c -4.505,2.102 -5.181,3.734 -9.088,6.303 -7.879,5.182 -11.63,2.82 -15.902,6.302 -8.36,6.816 -3.584,23.052 -4.544,23.111 -0.612,0.037 -2.837,-6.559 -2.272,-14.707 0.248,-3.573 0.922,-5.861 0,-6.303 -1.447,-0.692 -5.478,3.803 -8.92,8.083 0,0 -0.092,0.172 -0.167,0.321 -4.153,8.219 3.854,24.436 2.272,25.211 -0.82,0.402 -4.842,-3.036 -6.816,-8.404 -3.188,-8.67 1.161,-16.414 0,-16.807 -1.019,-0.345 -5.801,5.145 -6.815,12.606 -1.415,10.411 5.344,18.51 4.543,18.908 -0.723,0.359 -7.33,-5.708 -9.087,-14.707 -0.108,-0.552 -2.434,-13.63 6.816,-23.11 5.46,-5.596 12.739,-7.666 22.718,-10.504 5.573,-1.586 10.931,-2.488 18.174,-6.303 0.629,-0.331 1.168,-0.687 1.168,-0.687 3.07,-1.827 5.648,-3.515 5.648,-3.515 -0.393,-0.77 -1.118,-1.894 -2.272,-2.101 C 13.845,-4.571 12.599,-1.641 9.087,0 5.892,1.493 1.249,1.718 0,0"
             style="fill:#ffffff;fill-opacity:1;fill-rule:nonzero;stroke:none"
             id="path54" />
        </g>
        <g
           id="g56"
           transform="translate(216.7946,365.756)">
          <path
             d="m 0,0 c -1.342,-1.845 0.896,-6.391 4.544,-8.404 4.566,-2.519 8.965,0.244 11.359,-2.101 1.07,-1.048 1.356,-2.741 0,-8.403 -1.956,-8.165 -4.135,-12.63 -6.816,-21.01 -2.102,-6.57 -2.293,-8.692 -2.272,-10.504 0.06,-4.993 1.696,-4.498 2.272,-10.505 0.41,-4.267 0.346,-12.442 2.272,-14.706 0.084,-0.098 0.457,-0.522 0.874,-1.154 0.871,-1.324 1.196,-2.447 1.398,-3.048 0.206,-0.613 0.368,-0.901 0.456,-1.125 0.942,-2.407 1.761,-5.005 1.816,-5.178 0.791,-2.506 1.224,-3.405 2.272,-6.303 2.288,-6.331 3.823,-12.017 4.543,-14.706 1.383,-5.162 2.079,-7.799 2.272,-10.505 0.1,-1.39 0.066,-3.727 0,-8.403 -0.086,-6.05 -0.205,-6.596 0,-8.404 0.507,-4.461 1.632,-4.624 2.272,-8.404 0.218,-1.287 1.401,-8.28 -2.272,-14.706 -2.183,-3.82 -4.749,-5.107 -4.543,-8.404 0.021,-0.352 0.236,-3.147 2.271,-4.202 2.794,-1.448 7.769,1.032 9.087,4.202 0.866,2.08 -0.53,2.806 0,6.303 0.481,3.168 1.81,3.771 2.272,6.303 0.527,2.884 -1.976,3.884 -2.272,8.403 -0.053,0.813 -0.027,1.357 0,2.101 v 14.707 10.504 c 0,15.479 -2.877,21.619 0,23.11 1.905,0.987 5.092,-0.52 6.816,-2.1 1.46,-1.34 2.716,-3.505 2.272,-16.808 -0.233,-6.973 -0.652,-8.595 0,-12.605 0.267,-1.643 0.403,-1.885 1.097,-4.234 0,0 0.491,-1.422 1.175,-4.17 0.811,-3.263 0.025,-4.429 0,-12.606 v -2.101 -6.302 c -10e-4,-6.298 -0.004,-6.266 0,-6.303 0.449,-5.054 0.674,-7.58 2.271,-8.404 1.992,-1.026 5.418,0.073 6.816,2.101 1.061,1.54 0.679,3.219 0,6.303 -0.771,3.499 -1.384,7.029 -2.272,10.505 -1.262,4.94 -0.225,5.702 0,21.009 0.124,8.409 -0.198,7.527 0,10.504 0.769,11.523 4.371,23.256 6.815,23.111 0.749,-0.045 1.256,-1.437 2.272,-4.202 1.332,-3.626 1.005,-5.215 2.272,-8.404 0.814,-2.049 1.705,-3.296 2.272,-4.202 3.645,-5.823 4.329,-14.185 4.544,-16.807 0.247,-3.022 1.428,-16.783 -6.816,-29.413 -2.803,-4.294 -5.615,-6.861 -4.544,-8.404 1.443,-2.077 9.244,-1.323 11.36,2.101 1.102,1.784 0.334,3.761 2.271,6.303 0.115,0.15 0.358,0.348 0.641,0.709 1.136,1.447 1.4,2.963 1.495,3.493 0.627,3.515 1.833,6.943 2.101,10.504 0.798,10.627 4.949,11.537 4.851,21.01 -0.055,5.301 -1.377,9.753 -2.272,12.605 -2.707,8.624 -6.432,12.417 -4.544,14.707 1.579,1.913 6.24,1.762 9.087,0 2.873,-1.778 2.733,-4.486 4.544,-8.404 3.192,-6.905 7.196,-6.516 11.359,-12.606 1.51,-2.208 2.517,-7.808 4.544,-18.908 1.918,-10.502 2.864,-15.816 2.272,-18.908 -1.243,-6.485 -4.315,-9.679 -2.272,-12.606 1.82,-2.609 6.828,-3.751 9.087,-2.101 3.018,2.205 -0.617,8.12 -2.272,18.909 -1.998,13.029 1.407,16.767 1.256,23.022 -0.051,2.122 -0.388,1.475 -1.256,6.39 -1.439,8.15 -0.678,9.35 -2.272,12.606 -1.447,2.958 -2.732,3.311 -3.766,4.792 -0.252,0.361 -0.579,0.878 -0.777,1.511 -0.584,1.864 0.368,3.705 0.812,4.447 0.601,1.961 1.271,4.759 1.46,8.158 0.19,3.426 0.203,15.802 -6.816,23.11 -10.722,11.165 -28.715,2.632 -38.621,14.707 -1.378,1.68 -0.272,0.997 -4.543,10.505 -8.255,18.375 -14.443,26.188 -11.359,29.412 1.835,1.919 4.632,-0.176 9.087,2.101 6.063,3.1 8.665,11.085 6.815,12.606 -1.048,0.862 -3.267,-1.247 -11.359,-4.202 -3.261,-1.191 -8.24,-3.009 -8.761,-2.101 -0.512,0.893 3.38,4.245 6.303,6.303 11.975,8.43 20.479,4.137 34.264,10.505 4.53,2.092 11.299,5.421 15.902,12.605 7.965,12.429 3.369,27.285 2.272,27.312 -0.611,0.015 -0.885,-4.559 -4.543,-18.908 -1.701,-6.671 -2.856,-10.444 -4.544,-10.505 -1.634,-0.059 -2.021,3.42 -6.816,8.404 -2.691,2.798 -3.217,2.375 -4.543,4.202 -3.996,5.504 -1.51,12.492 -2.272,12.605 -0.571,0.085 -2.666,-3.741 -2.272,-8.403 0.086,-1.011 0.398,-3.356 4.544,-10.505 3.755,-6.476 4.884,-6.901 4.543,-8.404 -1.362,-6.007 -19.638,-8.26 -20.446,-6.303 -0.32,0.777 2.413,1.483 4.544,4.202 6.361,8.119 -1.154,23.321 -2.272,23.11 -0.622,-0.117 1.47,-4.871 0,-12.605 C 63.179,27.139 61.467,19.184 54.524,12.606 54.093,12.198 49.693,9.532 40.893,4.202 36.186,1.35 34.543,0.385 31.805,0 26.889,-0.691 22.696,1.052 20.447,2.101 c -4.505,2.102 -5.181,3.734 -9.088,6.303 -7.879,5.182 -11.63,2.82 -15.902,6.302 -8.36,6.816 -3.584,23.052 -4.544,23.111 -0.612,0.037 -2.837,-6.559 -2.272,-14.707 0.248,-3.573 0.922,-5.861 0,-6.303 -1.447,-0.692 -5.478,3.803 -8.92,8.083 0,0 -0.092,0.172 -0.167,0.321 -4.153,8.219 3.854,24.436 2.272,25.211 -0.82,0.402 -4.842,-3.036 -6.816,-8.404 -3.188,-8.67 1.161,-16.414 0,-16.807 -1.019,-0.345 -5.801,5.145 -6.815,12.606 -1.415,10.411 5.344,18.51 4.543,18.908 -0.723,0.359 -7.33,-5.708 -9.087,-14.707 -0.108,-0.552 -2.434,-13.63 6.816,-23.11 5.46,-5.596 12.739,-7.666 22.718,-10.504 5.573,-1.586 10.931,-2.488 18.174,-6.303 0.629,-0.331 1.168,-0.687 1.168,-0.687 3.07,-1.827 5.648,-3.515 5.648,-3.515 -0.393,-0.77 -1.118,-1.894 -2.272,-2.101 C 13.845,-4.571 12.599,-1.641 9.087,0 5.892,1.493 1.249,1.718 0,0 Z"
             style="fill:none;stroke:#4c5b72;stroke-width:1;stroke-linecap:butt;stroke-linejoin:miter;stroke-miterlimit:10;stroke-dasharray:none;stroke-opacity:1"
             id="path58" />
        </g>
      </g>
    </g>
  </g>
</svg>
